# xmcd
#
# Track frame offsets:
#	183
#	13458
#	27533
#	40798
#	53120
#	69255
#	80155
#	96023
#	109608
#	122038
#	133843
#	143875
#	157410
#	169653
#	184490
#	200523
#	213355
#	224105
#	239058
#	249568
#	266560
#	280493
#	292010
#	304655
#
# Disc length: 4190 seconds
#
# Revision: 0
# Processed by: cddbd v1.4PL0 Copyright (c) Steve Scherf et al.
# Submitted via: audiograbber 1.81.01
#
DISCID=88105c18
DTITLE=Lynn Anderson - Rose garden
DYEAR=1900
DGENRE=Country
TTITLE0=Rose garden
TTITLE1=Cry
TTITLE2=Top of the world
TTITLE3=Stand by your man
TTITLE4=Devil went down to Georgia
TTITLE5=Ways to love a man
TTITLE6=You needed me
TTITLE7=Talking in your sleep
TTITLE8=How can I unlove you
TTITLE9=You're my man
TTITLE10=What a man, my man is
TTITLE11=Keep me in mind
TTITLE12=Listen to a country song
TTITLE13=We've onlj just begun
TTITLE14=I was country
TTITLE15=Danny's song
TTITLE16=Heaven's just a sin away
TTITLE17=Could I have this dance
TTITLE18=Heartbreak hotel
TTITLE19=Blue bayou
TTITLE20=Two doors down
TTITLE21=That'll be the day
TTITLE22=I fall to peaces
TTITLE23=Snowbird
EXTD=
EXTT0=
EXTT1=
EXTT2=
EXTT3=
EXTT4=
EXTT5=
EXTT6=
EXTT7=
EXTT8=
EXTT9=
EXTT10=
EXTT11=
EXTT12=
EXTT13=
EXTT14=
EXTT15=
EXTT16=
EXTT17=
EXTT18=
EXTT19=
EXTT20=
EXTT21=
EXTT22=
EXTT23=
PLAYORDER=
